<svg xmlns="http://www.w3.org/2000/svg" viewBox="0 0 62 35" fill="#ffffff" aria-hidden="true"><g clip-path="url(#clip0_16_447)"><path d="M19.9047 8.8717H16.3574V12.4005H19.9047V8.8717Z"></path><path d="M17.0504 7.05607L19.4317 3.52785H16.6317C16.6316 4.52976 15.8152 5.34196 14.8079 5.34196C13.8007 5.34196 12.9843 4.52971 12.9843 3.52774C12.9843 2.62391 13.6494 1.8766 14.5189 1.73848L11.8045 0L9.08965 1.73848C9.9591 1.8766 10.6242 2.62391 10.6242 3.52775C10.6242 4.52971 9.80773 5.34197 8.80055 5.34197C7.79337 5.34197 6.97691 4.52977 6.97686 3.52786H4.17676L6.55816 7.05607L17.0504 7.05607Z"></path><path d="M16.3574 18.3565L16.3862 20.2975L19.9329 22.7668L19.9041 14.8271L16.3574 18.3565Z"></path><path d="M11.806 14.8271L9.42383 18.3565H16.3581L19.9048 14.8271H11.806Z"></path><path d="M16.9758 6.92305L19.2129 3.68061L16.779 3.67353C16.7496 4.47083 15.9686 5.56785 14.7015 5.48012C13.5886 5.44377 12.8829 4.56381 12.8283 3.60998C12.7657 2.867 13.2845 1.8069 14.323 1.70844L11.8051 0.133362L9.2927 1.69894C10.184 1.814 10.7919 2.72488 10.7781 3.60562C10.8088 4.55191 9.91328 5.47688 8.88429 5.48344C7.7092 5.53182 6.88799 4.65857 6.82977 3.62838L4.24512 3.62794L4.78602 4.42933L6.58836 6.92305H16.9758Z"></path><path d="M19.8799 9.00549H16.3828V12.2766H19.8799V9.00549Z"></path><path d="M7.19415 12.4005H3.64746V12.4009V16.4584V22.7668L7.19415 20.2975V19.8847V12.4009V12.4005Z"></path><path d="M7.19415 12.4005H3.64746V12.4009V16.4584V22.7668L7.19415 20.2975V19.8847V12.4009V12.4005Z"></path><path d="M11.8848 14.9735L9.5127 18.2249L16.4227 18.2923L19.7772 14.9542L11.8848 14.9735Z"></path><path d="M7.19441 12.1581L3.80176 12.1719V22.6596L7.06836 20.3869L7.19441 13.5324V12.1581Z"></path><path d="M16.4229 18.2923L16.4658 20.3524L19.8345 22.6976L19.7773 14.9542L16.4229 18.2923Z"></path><path d="M11.8048 25.7063L19.9334 22.7668L16.3867 20.2975L11.7904 21.9552L7.19415 20.2975L3.64746 22.7668L11.7761 25.7063V25.7167L11.7904 25.7115L11.8048 25.7167V25.7063Z"></path><path d="M11.8037 25.5271L19.8345 22.6977L16.4658 20.3524L11.7907 22.1434L7.06836 20.387L3.80176 22.6596L11.7777 25.5271V25.5365L11.7907 25.5318L11.8037 25.5365V25.5271Z"></path><path opacity="0.42" d="M7.19441 9.922L3.80176 9.9358V22.6596L7.06836 20.3869L7.19441 13.5324V9.922Z"></path><path d="M13.4435 12.4005L15.8252 8.87152H0V12.4005H13.4435Z"></path><path d="M13.3953 12.2766L15.6372 9.00549H0.0556641V12.2766H13.3953Z"></path><path d="M26.4385 9.05028H39.2363V12.2362H34.6993V24.3376H30.9869V12.2362H26.4385L26.4385 9.05028ZM47.5572 8.82507C50.364 8.82507 52.8537 10.3335 54.155 12.2589L51.2913 14.3636C50.5898 13.3509 49.4025 12.2924 47.5572 12.2924C44.9887 12.2924 43.2688 14.1389 43.2688 16.6826C43.2688 19.2264 44.9773 21.0956 47.5572 21.0956C49.2885 21.0956 50.7711 20.3751 51.2467 18.9342H47.1956V15.8271H55.1963C55.2408 16.2662 55.2636 16.7955 55.2636 17.4258C55.2636 21.5573 51.8694 24.5628 47.5572 24.5628C42.9973 24.5628 39.4549 21.1631 39.4549 16.6826C39.4549 12.1913 43.0087 8.82507 47.5572 8.82507ZM61.5341 24.3376H57.8104V9.05028H61.5341V24.3376Z"></path><path d="M34.7937 24.4312H30.8932V12.3297H26.3447V8.95668H39.3308V12.3297H34.7937V24.4312ZM31.0814 24.244H34.6055V12.1425H39.1426V9.14389H26.5329V12.1425H31.0814L31.0814 24.244ZM47.5575 24.6565C42.8847 24.6565 39.3613 21.2284 39.3613 16.6825C39.3613 12.1497 42.8847 8.73145 47.5575 8.73145C50.1858 8.73145 52.8065 10.0955 54.2334 12.2065L54.2837 12.2809L51.269 14.4962L51.2139 14.4165C50.5725 13.4901 49.4173 12.3859 47.5575 12.3859C45.0878 12.3859 43.3633 14.1526 43.3633 16.6825C43.3633 19.2258 45.0878 21.0019 47.5575 21.0019C49.321 21.0019 50.6387 20.2667 51.1139 19.0278H47.1017V15.7335H55.282L55.2904 15.8178C55.3353 16.2615 55.3581 16.8025 55.3581 17.4257C55.3581 21.548 52.0045 24.6565 47.5575 24.6565ZM47.5575 8.91865C42.9921 8.91865 39.5495 12.2564 39.5495 16.6825C39.5495 21.1216 42.992 24.4692 47.5575 24.4692C51.8972 24.4692 55.1699 21.4412 55.1699 17.4257C55.1699 16.8478 55.1501 16.3421 55.1111 15.9207H47.2899V18.8405H51.3771L51.3363 18.9634C50.8765 20.357 49.4636 21.1891 47.5575 21.1891C44.9772 21.1891 43.1751 19.336 43.1751 16.6825C43.1751 14.0424 44.9772 12.1986 47.5575 12.1986C49.446 12.1986 50.6357 13.2851 51.3131 14.2311L54.0268 12.237C52.6227 10.2185 50.0943 8.91865 47.5575 8.91865ZM61.6286 24.4312H57.7167V8.95668H61.6286V24.4312ZM57.9049 24.244H61.4404V9.14389H57.9049V24.244Z"></path><g opacity="0.25" style="mix-blend-mode:overlay"><path d="M34.7654 24.403H30.9215V12.3016H26.373V8.98482H39.3022V12.3016H34.7654V24.403ZM31.0531 24.2721H34.6339V12.1707H39.1706V9.11571H26.5046V12.1707H31.0531L31.0531 24.2721ZM47.5575 24.6283C45.3297 24.6283 43.2674 23.8191 41.7505 22.3498C40.2277 20.875 39.3893 18.8623 39.3893 16.6825C39.3893 12.1657 42.9009 8.75958 47.5575 8.75958C50.177 8.75958 52.7882 10.1187 54.2099 12.2222L54.2448 12.2743L51.276 14.4563L51.2371 14.4005C50.592 13.4687 49.4294 12.3577 47.5575 12.3577C45.0713 12.3577 43.3346 14.1362 43.3346 16.6825C43.3346 19.2422 45.0713 21.03 47.5575 21.03C49.3511 21.03 50.6876 20.2729 51.1544 18.9996H47.13V15.7616H55.2559L55.2618 15.8205C55.307 16.2622 55.3298 16.8023 55.3298 17.4257C55.3298 21.5319 51.9884 24.6283 47.5575 24.6283ZM47.5575 8.89048C42.9759 8.89048 39.5209 12.2403 39.5209 16.6825C39.5209 18.8266 40.3453 20.8059 41.8424 22.256C43.3343 23.7014 45.3639 24.4974 47.5575 24.4974C51.9134 24.4974 55.1982 21.4573 55.1982 17.4257C55.1982 16.8341 55.1776 16.3187 55.1368 15.8925H47.2616V18.8687H51.3378L51.3095 18.9546C50.8537 20.3362 49.4508 21.1609 47.5575 21.1609C44.9938 21.1609 43.203 19.3193 43.203 16.6825C43.203 14.059 44.9938 12.2268 47.5575 12.2268C49.4497 12.2268 50.6361 13.3248 51.3069 14.2707L54.065 12.2434C52.6595 10.2046 50.1127 8.89048 47.5575 8.89048ZM61.5999 24.403H57.7446V8.98482H61.5999V24.403ZM57.8762 24.2721H61.4683V9.11571H57.8762V24.2721Z"></path></g><g opacity="0.55" style="mix-blend-mode:overlay"><path d="M34.7461 24.3844H30.9397V12.2831H26.3916V9.00349H39.2832V12.2831H34.7461V24.3844ZM31.0338 24.2908H34.652V12.1895H39.1891V9.09709H26.4857V12.1895H31.0338V24.2908ZM47.5573 24.6097C45.3343 24.6097 43.2767 23.8023 41.7631 22.3365C40.2444 20.8651 39.4078 18.8572 39.4078 16.6827C39.4078 14.5068 40.2459 12.5012 41.7676 11.0359C43.2797 9.58012 45.3358 8.77826 47.5573 8.77826C50.1706 8.77826 52.7758 10.1342 54.1939 12.2329L54.2192 12.27L51.2803 14.43L51.2527 14.3901C50.6043 13.4546 49.437 12.3392 47.5573 12.3392C45.0597 12.3392 43.3157 14.1254 43.3157 16.6827C43.3157 19.2534 45.0597 21.0489 47.5573 21.0489C49.3712 21.0489 50.7197 20.2773 51.181 18.981H47.1486V15.7803H55.2388L55.2429 15.8224C55.2877 16.2646 55.3105 16.8041 55.3105 17.4259C55.3105 21.5213 51.9775 24.6097 47.5573 24.6097ZM47.5573 8.87186C45.3604 8.87186 43.3275 9.66439 41.833 11.1032C40.3297 12.5508 39.5019 14.5322 39.5019 16.6827C39.5019 18.8318 40.3282 20.8158 41.8289 22.2694C43.3245 23.7182 45.3589 24.5161 47.5573 24.5161C51.9238 24.5161 55.2164 21.4679 55.2164 17.4259C55.2164 16.827 55.1951 16.305 55.1536 15.8739H47.2427V18.8874H51.3119L51.2916 18.9488C50.8381 20.3223 49.4421 21.1425 47.5573 21.1425C45.0046 21.1425 43.2216 19.3086 43.2216 16.6827C43.2216 14.0702 45.0046 12.2457 47.5573 12.2457C49.4513 12.2457 50.6359 13.3517 51.3023 14.2975L54.0906 12.248C52.684 10.1957 50.125 8.87186 47.5573 8.87186ZM61.581 24.3844H57.7632V9.00349H61.581V24.3844ZM57.8573 24.2908H61.4869V9.09709H57.8573V24.2908Z"></path></g><path d="M4.88714 34.9458H4.15234V31.2692H4.88714V34.9458ZM6.92685 34.9458V31.2692H7.5936L9.63753 33.7925V31.2692H10.3723V34.9458H9.69466L7.66165 32.4497V34.9458H6.92685ZM12.0117 31.2692H15.0544V31.919H13.9004V34.9458H13.1682V31.919H12.0117V31.2692ZM16.6927 31.2692H19.3216V31.9027H17.4275V32.7501H19.0712V33.3837H17.4275V34.315H19.3625V34.9458H16.6927V31.2692ZM21.1614 34.9431V31.2692H22.7915C23.5944 31.2692 24.1143 31.7457 24.1143 32.4497C24.1143 32.9181 23.8556 33.3025 23.4257 33.4866L24.2611 34.9458H23.4556L22.7018 33.6084H21.899V34.9431H21.1614ZM21.899 32.9749H22.7452C23.1507 32.9749 23.3604 32.7285 23.3604 32.4497C23.3604 32.1436 23.1507 31.9027 22.7452 31.9027H21.899V32.9749ZM25.9789 34.9458V31.2692H26.6456L28.6894 33.7925V31.2692H29.4243V34.9458H28.7467L26.7136 32.4497V34.9458H25.9789ZM31.0146 34.9458L32.506 31.2692H33.3497L34.8438 34.9458H34.06L33.7878 34.2257H32.0734L31.7984 34.9458H31.0146ZM33.5756 33.6436L32.9305 32.0328L32.28 33.6436H33.5756ZM35.5597 31.2692H38.6024V31.919H37.4484V34.9458H36.7162V31.919H35.5597V31.2692ZM40.9755 34.9458H40.2407V31.2692H40.9755V34.9458ZM42.7756 33.1156C42.7756 32.003 43.592 31.215 44.7106 31.215C45.8346 31.215 46.6484 32.0056 46.6484 33.1156C46.6484 34.2255 45.8346 35 44.7106 35C43.592 35 42.7756 34.2257 42.7756 33.1156ZM44.7134 34.3204C45.4045 34.3204 45.8944 33.8332 45.8944 33.1129C45.8944 32.3983 45.4045 31.8974 44.7134 31.8974C44.0275 31.8974 43.5322 32.3983 43.5322 33.1129C43.5322 33.8332 44.0301 34.3204 44.7134 34.3204ZM48.4509 34.9458V31.2692H49.1176L51.1614 33.7925V31.2692H51.8964V34.9458H51.2187L49.1857 32.4497V34.9458H48.4509ZM53.4867 34.9458L54.978 31.2692H55.8218L57.316 34.9458H56.5322L56.26 34.2257H54.5454L54.2705 34.9458H53.4867ZM56.0477 33.6436L55.4027 32.0328L54.7522 33.6436H56.0477ZM61.63 34.9458H58.9058V31.2692H59.6405V34.315H61.63V34.9458Z"></path></g><defs><clippath id="clip0_16_447"><rect width="61.6304" height="35"></rect></clippath></defs></svg>