<svg xmlns="http://www.w3.org/2000/svg" viewBox="0 0 20 26" fill="#ffffff" aria-hidden="true"><path d="M19.9047 8.8717H16.3574V12.4005H19.9047V8.8717Z"></path><path d="M17.0504 7.05607L19.4317 3.52785H16.6317C16.6316 4.52976 15.8152 5.34196 14.8079 5.34196C13.8007 5.34196 12.9843 4.52971 12.9843 3.52774C12.9843 2.62391 13.6494 1.8766 14.5189 1.73848L11.8045 0L9.08965 1.73848C9.9591 1.8766 10.6242 2.62391 10.6242 3.52775C10.6242 4.52971 9.80773 5.34197 8.80055 5.34197C7.79337 5.34197 6.97691 4.52977 6.97686 3.52786H4.17676L6.55816 7.05607L17.0504 7.05607Z"></path><path d="M16.3574 18.3565L16.3862 20.2975L19.9329 22.7668L19.9041 14.8271L16.3574 18.3565Z"></path><path d="M11.806 14.8271L9.42383 18.3565H16.3581L19.9048 14.8271H11.806Z"></path><path d="M16.9758 6.92305L19.2129 3.68061L16.779 3.67353C16.7496 4.47083 15.9686 5.56785 14.7015 5.48012C13.5886 5.44377 12.8829 4.56381 12.8283 3.60998C12.7657 2.867 13.2845 1.8069 14.323 1.70844L11.8051 0.133362L9.2927 1.69894C10.184 1.814 10.7919 2.72488 10.7781 3.60562C10.8088 4.55191 9.91328 5.47688 8.88429 5.48344C7.7092 5.53182 6.88799 4.65857 6.82977 3.62838L4.24512 3.62794L4.78602 4.42933L6.58836 6.92305H16.9758Z"></path><path d="M19.8799 9.00549H16.3828V12.2766H19.8799V9.00549Z"></path><path d="M7.19415 12.4005H3.64746V12.4009V16.4584V22.7668L7.19415 20.2975V19.8847V12.4009V12.4005Z"></path><path d="M7.19415 12.4005H3.64746V12.4009V16.4584V22.7668L7.19415 20.2975V19.8847V12.4009V12.4005Z"></path><path d="M11.8848 14.9735L9.5127 18.2249L16.4227 18.2923L19.7772 14.9542L11.8848 14.9735Z"></path><path d="M7.19441 12.1581L3.80176 12.1719V22.6596L7.06836 20.3869L7.19441 13.5324V12.1581Z"></path><path d="M16.4229 18.2923L16.4658 20.3524L19.8345 22.6976L19.7773 14.9542L16.4229 18.2923Z"></path><path d="M11.8048 25.7063L19.9334 22.7668L16.3867 20.2975L11.7904 21.9552L7.19415 20.2975L3.64746 22.7668L11.7761 25.7063V25.7167L11.7904 25.7115L11.8048 25.7167V25.7063Z"></path><path d="M11.8037 25.5271L19.8345 22.6977L16.4658 20.3524L11.7907 22.1434L7.06836 20.387L3.80176 22.6596L11.7777 25.5271V25.5365L11.7907 25.5318L11.8037 25.5365V25.5271Z"></path><path opacity="0.42" d="M7.19441 9.922L3.80176 9.9358V22.6596L7.06836 20.3869L7.19441 13.5324V9.922Z"></path><path d="M13.4435 12.4005L15.8252 8.87152H0V12.4005H13.4435Z"></path><path d="M13.3953 12.2766L15.6372 9.00549H0.0556641V12.2766H13.3953Z"></path></svg>